<svg xmlns="http://www.w3.org/2000/svg" width="24" height="24" viewBox="0 0 24 24" fill="none" stroke="currentColor" stroke-width="2" stroke-linecap="round" stroke-linejoin="round" class="lucide lucide-nesting-doll"><path d="M9.5 12c0 1.4 1.1 2.5 2.5 2.5s2.5-1.1 2.5-2.5-1.1-2.5-2.5-2.5-2.5 1.1-2.5 2.5z"/><path d="M12 14.5c-4.7 0-8.5 3.8-8.5 8.5 0-4.7 3.8-8.5 8.5-8.5z"/><path d="M12 14.5c4.7 0 8.5 3.8 8.5 8.5 0-4.7-3.8-8.5-8.5-8.5z"/><path d="M12 2a4 4 0 0 0-4 4c0 2.2 1.8 4 4 4s4-1.8 4-4a4 4 0 0 0-4-4z"/></svg>